<svg width="50" height="50" viewBox="0 0 50 50" fill="none" xmlns="http://www.w3.org/2000/svg">
<path d="M28.8334 23.1375C29.0021 23.2948 29.1719 23.4438 29.3459 23.5823C30.6896 24.6604 32.1261 25.124 33.4938 25.1969C35.7959 25.3198 37.8438 24.2927 38.6761 23.874L38.9105 23.7594C39.4102 23.5237 39.7959 23.0992 39.9827 22.5792C40.1694 22.0592 40.142 21.4862 39.9063 20.9865C39.6706 20.4867 39.2461 20.101 38.7261 19.9143C38.2061 19.7275 37.6331 19.755 37.1334 19.9906L36.7855 20.1573C35.8646 20.6021 34.8407 21.0959 33.7157 21.0365C33.1688 21.0063 32.5792 20.8344 31.9532 20.3323C31.3021 19.8094 30.524 18.8584 29.7719 17.1323C29.1625 15.7344 28.2542 14.6511 26.9646 14.0354C25.7292 13.4459 24.4146 13.4209 23.2428 13.5604C20.1021 13.9334 17.7157 15.7542 16.0928 17.4459C14.7563 18.8375 13.7594 20.3479 13.2698 21.0886C13.1709 21.2396 13.0928 21.3584 13.0365 21.4375C12.7278 21.8895 12.6093 22.4448 12.7068 22.9835C12.8042 23.5221 13.1097 24.0007 13.5572 24.3159C14.0047 24.631 14.5583 24.7574 15.0983 24.6677C15.6382 24.578 16.1212 24.2794 16.4428 23.8365C16.5594 23.6719 16.6875 23.4792 16.8303 23.2636C17.3511 22.4802 18.0646 21.4073 19.099 20.3302C19.9136 19.4813 20.8261 18.7469 21.8303 18.2646L21.0667 20.3709C20.2959 22.5021 19.4386 24.8917 19.3 25.3709C19.2076 25.6948 19.1876 26.0352 19.2417 26.3677C19.274 26.5781 19.3303 26.7563 19.375 26.8813C19.4636 27.1292 19.5813 27.3646 19.6855 27.5542C19.898 27.9459 20.1896 28.3969 20.5032 28.8542C21.1386 29.7823 21.9948 30.9229 22.8438 32.0271C23.5938 33.0011 24.3573 33.9709 24.9855 34.7688L25.2365 35.0886C25.574 35.5167 25.8563 35.8761 26.0636 36.1459C26.1573 36.2667 26.2198 36.3521 26.2615 36.4063C26.3021 36.5448 26.3532 36.7459 26.4146 37.0094C26.5365 37.5334 26.6761 38.2146 26.824 38.9636C26.9198 39.4448 27.0188 39.9584 27.1157 40.4656C27.3136 41.4896 27.5063 42.4896 27.6542 43.1584C27.7133 43.4255 27.8244 43.6784 27.9813 43.9026C28.1381 44.1268 28.3376 44.318 28.5683 44.4651C28.799 44.6122 29.0564 44.7124 29.3258 44.7601C29.5952 44.8077 29.8714 44.8018 30.1386 44.7427C30.4057 44.6836 30.6586 44.5725 30.8829 44.4157C31.1071 44.2588 31.2982 44.0594 31.4453 43.8287C31.5924 43.598 31.6927 43.3406 31.7403 43.0711C31.788 42.8017 31.7821 42.5255 31.723 42.2584C31.5875 41.6438 31.4136 40.7479 31.225 39.7667C31.124 39.2438 31.0188 38.6969 30.9125 38.1563C30.777 37.4571 30.6304 36.7602 30.473 36.0656C30.4101 35.7895 30.34 35.5151 30.2625 35.2427C30.2105 35.0677 30.1042 34.7031 29.923 34.3854C29.7547 34.1192 29.5718 33.8626 29.375 33.6167L29.3646 33.6042C29.1417 33.3136 28.8459 32.9375 28.5105 32.5115L28.2573 32.1896C27.467 31.1886 26.683 30.1827 25.9053 29.1719L28.8344 23.1375H28.8334ZM21.4657 35.7604L18.4917 31.6281L17.6375 34.0854L12.4563 32.8677C11.9184 32.7413 11.3523 32.8338 10.8826 33.1248C10.4129 33.4157 10.078 33.8814 9.95161 34.4193C9.82522 34.9572 9.91768 35.5233 10.2087 35.993C10.4996 36.4627 10.9653 36.7976 11.5032 36.924L18.5115 38.5709C19.0129 38.6885 19.5401 38.6163 19.9914 38.3682C20.4427 38.12 20.7861 37.7135 20.9553 37.2271L21.4657 35.7615V35.7604Z" stroke="#333333" stroke-width="2" stroke-linecap="round" stroke-linejoin="round"/>
<path fill-rule="evenodd" clip-rule="evenodd" d="M33.3344 12.5C34.1632 12.5 34.9581 12.1708 35.5441 11.5847C36.1302 10.9987 36.4594 10.2038 36.4594 9.37502C36.4594 8.54622 36.1302 7.75136 35.5441 7.16531C34.9581 6.57926 34.1632 6.25002 33.3344 6.25002C32.5056 6.25002 31.7108 6.57926 31.1247 7.16531C30.5387 7.75136 30.2094 8.54622 30.2094 9.37502C30.2094 10.2038 30.5387 10.9987 31.1247 11.5847C31.7108 12.1708 32.5056 12.5 33.3344 12.5ZM33.3344 14.5834C34.7158 14.5834 36.0405 14.0346 37.0173 13.0579C37.994 12.0811 38.5428 10.7564 38.5428 9.37502C38.5428 7.99368 37.994 6.66892 37.0173 5.69217C36.0405 4.71542 34.7158 4.16669 33.3344 4.16669C31.9531 4.16669 30.6283 4.71542 29.6516 5.69217C28.6748 6.66892 28.1261 7.99368 28.1261 9.37502C28.1261 10.7564 28.6748 12.0811 29.6516 13.0579C30.6283 14.0346 31.9531 14.5834 33.3344 14.5834Z" fill="#333333"/>
</svg>
