<svg width="240" height="60" viewBox="0 0 240 60" fill="none" xmlns="http://www.w3.org/2000/svg">
<path d="M105.852 36.16C104.583 36.16 103.516 35.9253 102.652 35.456C101.788 34.9867 101.137 34.32 100.7 33.456C100.263 32.592 100.044 31.568 100.044 30.384C100.044 29.1893 100.279 28.16 100.748 27.296C101.217 26.4213 101.889 25.7493 102.764 25.28C103.649 24.8 104.711 24.56 105.948 24.56C106.769 24.56 107.489 24.672 108.108 24.896C108.727 25.1093 109.271 25.424 109.74 25.84L109.052 27.44C108.711 27.1733 108.385 26.96 108.076 26.8C107.767 26.64 107.447 26.528 107.116 26.464C106.785 26.3893 106.401 26.352 105.964 26.352C104.727 26.352 103.788 26.704 103.148 27.408C102.519 28.1013 102.204 29.0987 102.204 30.4C102.204 31.7013 102.503 32.6933 103.1 33.376C103.708 34.0587 104.657 34.4 105.948 34.4C106.385 34.4 106.823 34.3573 107.26 34.272C107.708 34.1867 108.145 34.064 108.572 33.904L108.188 34.768V31.392H105.548V29.888H109.9V35.312C109.377 35.5787 108.753 35.7867 108.028 35.936C107.303 36.0853 106.577 36.16 105.852 36.16ZM115.744 36.16C114.912 36.16 114.192 35.9893 113.584 35.648C112.976 35.3067 112.501 34.8213 112.16 34.192C111.829 33.5627 111.664 32.816 111.664 31.952C111.664 31.088 111.829 30.3467 112.16 29.728C112.501 29.0987 112.976 28.6133 113.584 28.272C114.192 27.9307 114.912 27.76 115.744 27.76C116.576 27.76 117.296 27.9307 117.904 28.272C118.522 28.6133 118.997 29.0987 119.328 29.728C119.669 30.3467 119.84 31.088 119.84 31.952C119.84 32.816 119.669 33.5627 119.328 34.192C118.997 34.8213 118.522 35.3067 117.904 35.648C117.296 35.9893 116.576 36.16 115.744 36.16ZM115.744 34.624C116.373 34.624 116.874 34.4053 117.248 33.968C117.621 33.52 117.808 32.848 117.808 31.952C117.808 31.056 117.621 30.3893 117.248 29.952C116.874 29.5147 116.373 29.296 115.744 29.296C115.114 29.296 114.613 29.5147 114.24 29.952C113.866 30.3893 113.68 31.056 113.68 31.952C113.68 32.848 113.866 33.52 114.24 33.968C114.613 34.4053 115.114 34.624 115.744 34.624ZM125.213 36.16C124.381 36.16 123.661 35.9893 123.053 35.648C122.445 35.3067 121.97 34.8213 121.629 34.192C121.298 33.5627 121.133 32.816 121.133 31.952C121.133 31.088 121.298 30.3467 121.629 29.728C121.97 29.0987 122.445 28.6133 123.053 28.272C123.661 27.9307 124.381 27.76 125.213 27.76C126.045 27.76 126.765 27.9307 127.373 28.272C127.991 28.6133 128.466 29.0987 128.797 29.728C129.138 30.3467 129.309 31.088 129.309 31.952C129.309 32.816 129.138 33.5627 128.797 34.192C128.466 34.8213 127.991 35.3067 127.373 35.648C126.765 35.9893 126.045 36.16 125.213 36.16ZM125.213 34.624C125.842 34.624 126.343 34.4053 126.717 33.968C127.09 33.52 127.277 32.848 127.277 31.952C127.277 31.056 127.09 30.3893 126.717 29.952C126.343 29.5147 125.842 29.296 125.213 29.296C124.583 29.296 124.082 29.5147 123.709 29.952C123.335 30.3893 123.149 31.056 123.149 31.952C123.149 32.848 123.335 33.52 123.709 33.968C124.082 34.4053 124.583 34.624 125.213 34.624ZM134.777 39.584C134.031 39.584 133.353 39.504 132.745 39.344C132.148 39.184 131.615 38.9387 131.145 38.608L131.577 37.168C131.887 37.3707 132.207 37.536 132.537 37.664C132.868 37.792 133.209 37.888 133.561 37.952C133.913 38.016 134.271 38.048 134.633 38.048C135.38 38.048 135.935 37.8613 136.297 37.488C136.671 37.1253 136.857 36.6027 136.857 35.92V33.984H137.017C136.847 34.5387 136.5 34.9813 135.977 35.312C135.465 35.6427 134.873 35.808 134.201 35.808C133.476 35.808 132.841 35.648 132.297 35.328C131.764 34.9973 131.348 34.528 131.049 33.92C130.751 33.312 130.601 32.5973 130.601 31.776C130.601 30.9547 130.751 30.2453 131.049 29.648C131.348 29.04 131.764 28.576 132.297 28.256C132.841 27.9253 133.476 27.76 134.201 27.76C134.884 27.76 135.476 27.9253 135.977 28.256C136.489 28.576 136.831 29.0133 137.001 29.568L136.857 29.472L137.017 27.92H138.953C138.911 28.2507 138.879 28.5867 138.857 28.928C138.836 29.2693 138.825 29.6053 138.825 29.936V35.68C138.825 36.9493 138.479 37.9147 137.785 38.576C137.103 39.248 136.1 39.584 134.777 39.584ZM134.745 34.272C135.385 34.272 135.892 34.0587 136.265 33.632C136.649 33.1947 136.841 32.576 136.841 31.776C136.841 30.976 136.649 30.3627 136.265 29.936C135.892 29.5093 135.385 29.296 134.745 29.296C134.095 29.296 133.577 29.5093 133.193 29.936C132.809 30.3627 132.617 30.976 132.617 31.776C132.617 32.576 132.809 33.1947 133.193 33.632C133.577 34.0587 134.095 34.272 134.745 34.272ZM140.986 36V24.224H142.986V36H140.986ZM149.062 36.16C147.708 36.16 146.646 35.7867 145.878 35.04C145.11 34.2933 144.726 33.2693 144.726 31.968C144.726 31.1253 144.892 30.3893 145.222 29.76C145.553 29.1307 146.012 28.64 146.598 28.288C147.196 27.936 147.889 27.76 148.678 27.76C149.457 27.76 150.108 27.9253 150.63 28.256C151.153 28.5867 151.548 29.0507 151.814 29.648C152.092 30.2453 152.23 30.944 152.23 31.744V32.272H146.342V31.216H150.806L150.534 31.44C150.534 30.6933 150.374 30.1227 150.054 29.728C149.745 29.3333 149.292 29.136 148.694 29.136C148.033 29.136 147.521 29.3707 147.158 29.84C146.806 30.3093 146.63 30.9653 146.63 31.808V32.016C146.63 32.8907 146.844 33.5467 147.27 33.984C147.708 34.4107 148.321 34.624 149.11 34.624C149.569 34.624 149.996 34.5653 150.39 34.448C150.796 34.32 151.18 34.1173 151.542 33.84L152.134 35.184C151.75 35.4933 151.292 35.7333 150.758 35.904C150.225 36.0747 149.66 36.16 149.062 36.16Z" fill="#FF6B00"/>
<path d="M89.8586 28.1507L89.7352 27.637H78.3528V32.363H85.1536C84.4475 35.6523 81.1711 37.3837 78.4947 37.3837C76.5474 37.3837 74.4947 36.5802 73.1361 35.2886C72.4193 34.5962 71.8487 33.772 71.457 32.863C71.0654 31.9541 70.8603 30.9782 70.8535 29.9914C70.8535 28.0007 71.7655 26.0095 73.0924 24.6996C74.4194 23.3898 76.4235 22.657 78.4161 22.657C80.6982 22.657 82.3337 23.8457 82.9453 24.3879L86.3686 21.0471C85.3644 20.1814 82.6056 18 78.3058 18C74.9884 18 71.8075 19.2466 69.4823 21.5202C67.1877 23.7589 66 26.9963 66 30C66 33.0037 67.1238 36.0793 69.3474 38.3357C71.7234 40.7421 75.0883 42 78.5532 42C81.7057 42 84.6938 40.7882 86.8235 38.5896C88.9171 36.4254 90 33.4307 90 30.2914C90 28.9698 89.8646 28.185 89.8586 28.1507Z" fill="#FF6B00"/>
<rect x="0.5" y="0.5" width="239" height="59" rx="5.5" stroke="#FF6B00"/>
</svg>
