<svg width="240" height="60" viewBox="0 0 240 60" fill="none" xmlns="http://www.w3.org/2000/svg">
<path d="M98.6855 36V24.72H106.126V26.336H100.75V29.536H105.758V31.152H100.75V36H98.6855ZM110.489 36.16C109.785 36.16 109.167 35.9947 108.633 35.664C108.1 35.3227 107.684 34.8373 107.385 34.208C107.087 33.5787 106.937 32.8267 106.937 31.952C106.937 31.0773 107.087 30.3307 107.385 29.712C107.684 29.0827 108.1 28.6027 108.633 28.272C109.167 27.9307 109.785 27.76 110.489 27.76C111.172 27.76 111.769 27.9307 112.281 28.272C112.804 28.6027 113.151 29.0507 113.321 29.616H113.145L113.321 27.92H115.241C115.209 28.2507 115.177 28.5867 115.145 28.928C115.124 29.2693 115.113 29.6053 115.113 29.936V36H113.129L113.113 34.336H113.305C113.135 34.8907 112.788 35.3333 112.265 35.664C111.743 35.9947 111.151 36.16 110.489 36.16ZM111.049 34.624C111.679 34.624 112.185 34.4053 112.569 33.968C112.953 33.52 113.145 32.848 113.145 31.952C113.145 31.056 112.953 30.3893 112.569 29.952C112.185 29.5147 111.679 29.296 111.049 29.296C110.42 29.296 109.913 29.5147 109.529 29.952C109.145 30.3893 108.953 31.056 108.953 31.952C108.953 32.848 109.14 33.52 109.513 33.968C109.897 34.4053 110.409 34.624 111.049 34.624ZM121.003 36.16C120.171 36.16 119.44 35.9893 118.811 35.648C118.192 35.3067 117.712 34.8213 117.371 34.192C117.03 33.552 116.859 32.7947 116.859 31.92C116.859 31.0453 117.03 30.2987 117.371 29.68C117.723 29.0613 118.208 28.5867 118.827 28.256C119.446 27.9253 120.171 27.76 121.003 27.76C121.536 27.76 122.054 27.8453 122.555 28.016C123.067 28.176 123.483 28.4107 123.803 28.72L123.195 30.112C122.907 29.8453 122.582 29.648 122.219 29.52C121.867 29.3813 121.52 29.312 121.179 29.312C120.464 29.312 119.904 29.536 119.499 29.984C119.104 30.432 118.907 31.0827 118.907 31.936C118.907 32.7893 119.104 33.4453 119.499 33.904C119.904 34.3627 120.464 34.592 121.179 34.592C121.51 34.592 121.851 34.528 122.203 34.4C122.566 34.272 122.896 34.0747 123.195 33.808L123.803 35.184C123.472 35.4933 123.051 35.7333 122.539 35.904C122.038 36.0747 121.526 36.16 121.003 36.16ZM129.101 36.16C127.747 36.16 126.685 35.7867 125.917 35.04C125.149 34.2933 124.765 33.2693 124.765 31.968C124.765 31.1253 124.931 30.3893 125.261 29.76C125.592 29.1307 126.051 28.64 126.637 28.288C127.235 27.936 127.928 27.76 128.717 27.76C129.496 27.76 130.147 27.9253 130.669 28.256C131.192 28.5867 131.587 29.0507 131.853 29.648C132.131 30.2453 132.269 30.944 132.269 31.744V32.272H126.381V31.216H130.845L130.573 31.44C130.573 30.6933 130.413 30.1227 130.093 29.728C129.784 29.3333 129.331 29.136 128.733 29.136C128.072 29.136 127.56 29.3707 127.197 29.84C126.845 30.3093 126.669 30.9653 126.669 31.808V32.016C126.669 32.8907 126.883 33.5467 127.309 33.984C127.747 34.4107 128.36 34.624 129.149 34.624C129.608 34.624 130.035 34.5653 130.429 34.448C130.835 34.32 131.219 34.1173 131.581 33.84L132.173 35.184C131.789 35.4933 131.331 35.7333 130.797 35.904C130.264 36.0747 129.699 36.16 129.101 36.16ZM138.587 36.16C137.904 36.16 137.307 35.9947 136.795 35.664C136.283 35.3227 135.942 34.864 135.771 34.288H135.947V36H133.963V24.224H135.963V29.568H135.771C135.952 29.0133 136.299 28.576 136.811 28.256C137.323 27.9253 137.915 27.76 138.587 27.76C139.302 27.76 139.926 27.9307 140.459 28.272C140.992 28.6133 141.408 29.0987 141.707 29.728C142.006 30.3467 142.155 31.0933 142.155 31.968C142.155 32.8427 142.006 33.5947 141.707 34.224C141.408 34.8427 140.987 35.3227 140.443 35.664C139.91 35.9947 139.291 36.16 138.587 36.16ZM138.027 34.624C138.656 34.624 139.163 34.4053 139.547 33.968C139.942 33.5307 140.139 32.864 140.139 31.968C140.139 31.072 139.942 30.4053 139.547 29.968C139.163 29.52 138.656 29.296 138.027 29.296C137.398 29.296 136.891 29.5147 136.507 29.952C136.123 30.3893 135.931 31.056 135.931 31.952C135.931 32.848 136.123 33.52 136.507 33.968C136.891 34.4053 137.398 34.624 138.027 34.624ZM147.533 36.16C146.701 36.16 145.981 35.9893 145.373 35.648C144.765 35.3067 144.29 34.8213 143.949 34.192C143.618 33.5627 143.453 32.816 143.453 31.952C143.453 31.088 143.618 30.3467 143.949 29.728C144.29 29.0987 144.765 28.6133 145.373 28.272C145.981 27.9307 146.701 27.76 147.533 27.76C148.365 27.76 149.085 27.9307 149.693 28.272C150.312 28.6133 150.786 29.0987 151.117 29.728C151.458 30.3467 151.629 31.088 151.629 31.952C151.629 32.816 151.458 33.5627 151.117 34.192C150.786 34.8213 150.312 35.3067 149.693 35.648C149.085 35.9893 148.365 36.16 147.533 36.16ZM147.533 34.624C148.162 34.624 148.664 34.4053 149.037 33.968C149.41 33.52 149.597 32.848 149.597 31.952C149.597 31.056 149.41 30.3893 149.037 29.952C148.664 29.5147 148.162 29.296 147.533 29.296C146.904 29.296 146.402 29.5147 146.029 29.952C145.656 30.3893 145.469 31.056 145.469 31.952C145.469 32.848 145.656 33.52 146.029 33.968C146.402 34.4053 146.904 34.624 147.533 34.624ZM157.002 36.16C156.17 36.16 155.45 35.9893 154.842 35.648C154.234 35.3067 153.759 34.8213 153.418 34.192C153.087 33.5627 152.922 32.816 152.922 31.952C152.922 31.088 153.087 30.3467 153.418 29.728C153.759 29.0987 154.234 28.6133 154.842 28.272C155.45 27.9307 156.17 27.76 157.002 27.76C157.834 27.76 158.554 27.9307 159.162 28.272C159.78 28.6133 160.255 29.0987 160.586 29.728C160.927 30.3467 161.098 31.088 161.098 31.952C161.098 32.816 160.927 33.5627 160.586 34.192C160.255 34.8213 159.78 35.3067 159.162 35.648C158.554 35.9893 157.834 36.16 157.002 36.16ZM157.002 34.624C157.631 34.624 158.132 34.4053 158.506 33.968C158.879 33.52 159.066 32.848 159.066 31.952C159.066 31.056 158.879 30.3893 158.506 29.952C158.132 29.5147 157.631 29.296 157.002 29.296C156.372 29.296 155.871 29.5147 155.498 29.952C155.124 30.3893 154.938 31.056 154.938 31.952C154.938 32.848 155.124 33.52 155.498 33.968C155.871 34.4053 156.372 34.624 157.002 34.624ZM162.822 36V24.224H164.822V31.36H164.854L168.134 27.92H170.55L166.47 32.192L166.486 31.392L170.838 36H168.358L164.854 32.384H164.822V36H162.822Z" fill="#3B5998"/>
<path fill-rule="evenodd" clip-rule="evenodd" d="M86 30.0725C86 23.4057 80.6268 18 74 18C67.3732 18 62 23.4057 62 30.0725C62 36.098 66.3875 41.0924 72.125 41.9989V33.5633H69.0773V30.0725H72.125V27.4128C72.125 24.3876 73.917 22.7153 76.6577 22.7153C77.9707 22.7153 79.3443 22.9513 79.3443 22.9513V25.9226H77.8304C76.3405 25.9226 75.8745 26.8528 75.8745 27.8089V30.0725H79.2023L78.6709 33.5633H75.875V42C81.6125 41.094 86 36.0996 86 30.0725Z" fill="#3B5998"/>
<rect x="0.5" y="0.5" width="239" height="59" rx="5.5" stroke="#3B5998"/>
</svg>
